<svg id="visual" viewBox="0 0 960 300" width="960" height="300" xmlns="http://www.w3.org/2000/svg" xmlns:xlink="http://www.w3.org/1999/xlink" version="1.1"><path d="M0 160L20 169.7C40 179.3 80 198.7 120 200.3C160 202 200 186 240 185.3C280 184.7 320 199.3 360 206.3C400 213.3 440 212.7 480 209.5C520 206.3 560 200.7 600 199.7C640 198.7 680 202.3 720 206.5C760 210.7 800 215.3 840 219.3C880 223.3 920 226.7 940 228.3L960 230L960 0L940 0C920 0 880 0 840 0C800 0 760 0 720 0C680 0 640 0 600 0C560 0 520 0 480 0C440 0 400 0 360 0C320 0 280 0 240 0C200 0 160 0 120 0C80 0 40 0 20 0L0 0Z" fill="#000b25"></path><path d="M0 141L20 142C40 143 80 145 120 148.3C160 151.7 200 156.3 240 159.7C280 163 320 165 360 169C400 173 440 179 480 181C520 183 560 181 600 176.8C640 172.7 680 166.3 720 157.8C760 149.3 800 138.7 840 135.5C880 132.3 920 136.7 940 138.8L960 141L960 0L940 0C920 0 880 0 840 0C800 0 760 0 720 0C680 0 640 0 600 0C560 0 520 0 480 0C440 0 400 0 360 0C320 0 280 0 240 0C200 0 160 0 120 0C80 0 40 0 20 0L0 0Z" fill="#153a53"></path><path d="M0 113L20 115.2C40 117.3 80 121.7 120 120.3C160 119 200 112 240 110.2C280 108.3 320 111.7 360 111C400 110.3 440 105.7 480 103.2C520 100.7 560 100.3 600 104C640 107.7 680 115.3 720 115.8C760 116.3 800 109.7 840 110.7C880 111.7 920 120.3 940 124.7L960 129L960 0L940 0C920 0 880 0 840 0C800 0 760 0 720 0C680 0 640 0 600 0C560 0 520 0 480 0C440 0 400 0 360 0C320 0 280 0 240 0C200 0 160 0 120 0C80 0 40 0 20 0L0 0Z" fill="#336b81"></path><path d="M0 62L20 66C40 70 80 78 120 82.5C160 87 200 88 240 85.3C280 82.7 320 76.3 360 74.7C400 73 440 76 480 76.7C520 77.3 560 75.7 600 79C640 82.3 680 90.7 720 89.3C760 88 800 77 840 75C880 73 920 80 940 83.5L960 87L960 0L940 0C920 0 880 0 840 0C800 0 760 0 720 0C680 0 640 0 600 0C560 0 520 0 480 0C440 0 400 0 360 0C320 0 280 0 240 0C200 0 160 0 120 0C80 0 40 0 20 0L0 0Z" fill="#5ba0ab"></path><path d="M0 58L20 58C40 58 80 58 120 55.3C160 52.7 200 47.3 240 48.5C280 49.7 320 57.3 360 58C400 58.7 440 52.3 480 52.3C520 52.3 560 58.7 600 58.7C640 58.7 680 52.3 720 49C760 45.7 800 45.3 840 42.8C880 40.3 920 35.7 940 33.3L960 31L960 0L940 0C920 0 880 0 840 0C800 0 760 0 720 0C680 0 640 0 600 0C560 0 520 0 480 0C440 0 400 0 360 0C320 0 280 0 240 0C200 0 160 0 120 0C80 0 40 0 20 0L0 0Z" fill="#8fd8d2"></path></svg>