<svg id="visual" viewBox="0 0 960 20" width="960" height="20" xmlns="http://www.w3.org/2000/svg"
    xmlns:xlink="http://www.w3.org/1999/xlink" version="1.1">
    <path
        d="M0 2L5.2 3.5C10.3 5 20.7 8 31 9C41.3 10 51.7 9 62 9.7C72.3 10.3 82.7 12.7 93 11.8C103.3 11 113.7 7 124 6.8C134.3 6.7 144.7 10.3 155 11C165.3 11.7 175.7 9.3 186 8.7C196.3 8 206.7 9 217 8.2C227.3 7.3 237.7 4.7 248 4.2C258.3 3.7 268.7 5.3 279 5.5C289.3 5.7 299.7 4.3 310 3.2C320.3 2 330.7 1 341 1.7C351.3 2.3 361.7 4.7 372 5.8C382.3 7 392.7 7 403 7.5C413.3 8 423.7 9 434 9.8C444.3 10.7 454.7 11.3 464.8 11.3C475 11.3 485 10.7 495.2 11C505.3 11.3 515.7 12.7 526 13.2C536.3 13.7 546.7 13.3 557 13.5C567.3 13.7 577.7 14.3 588 13.7C598.3 13 608.7 11 619 9C629.3 7 639.7 5 650 6C660.3 7 670.7 11 681 11.8C691.3 12.7 701.7 10.3 712 9.3C722.3 8.3 732.7 8.7 743 7.8C753.3 7 763.7 5 774 5.5C784.3 6 794.7 9 805 10C815.3 11 825.7 10 836 9.7C846.3 9.3 856.7 9.7 867 8.5C877.3 7.3 887.7 4.7 898 3.8C908.3 3 918.7 4 929 4.2C939.3 4.3 949.7 3.7 954.8 3.3L960 2L960 0L954.8 0C949.7 0 939.3 0 929 0C918.7 0 908.3 0 898 0C887.7 0 877.3 0 867 0C856.7 0 846.3 0 836 0C825.7 0 815.3 0 805 0C794.7 0 784.3 0 774 0C763.7 0 753.3 0 743 0C732.7 0 722.3 0 712 0C701.7 0 691.3 0 681 0C670.7 0 660.3 0 650 0C639.7 0 629.3 0 619 0C608.7 0 598.3 0 588 0C577.7 0 567.3 0 557 0C546.7 0 536.3 0 526 0C515.7 0 505.3 0 495.2 0C485 0 475 0 464.8 0C454.7 0 444.3 0 434 0C423.7 0 413.3 0 403 0C392.7 0 382.3 0 372 0C361.7 0 351.3 0 341 0C330.7 0 320.3 0 310 0C299.7 0 289.3 0 279 0C268.7 0 258.3 0 248 0C237.7 0 227.3 0 217 0C206.7 0 196.3 0 186 0C175.7 0 165.3 0 155 0C144.7 0 134.3 0 124 0C113.7 0 103.3 0 93 0C82.7 0 72.3 0 62 0C51.7 0 41.3 0 31 0C20.7 0 10.3 0 5.2 0L0 0Z"
        fill="#0B3D5E" stroke-linecap="round" stroke-linejoin="miter"></path>
</svg>