<svg id="visual" viewBox="0 0 960 20" width="960" height="20" xmlns="http://www.w3.org/2000/svg"
    xmlns:xlink="http://www.w3.org/1999/xlink" version="1.1">
    <path
        d="M0 5C10 2 20 4 30 6C40 8 50 10 60 12C70 14 80 16 90 14C100 12 110 8 120 6C130 4 140 6 150 8C160 10 170 14 180 16C190 18 200 18 210 16C220 14 230 10 240 8C250 6 260 8 270 10C280 12 290 14 300 14C310 14 320 12 330 10C340 8 350 6 360 6C370 6 380 8 390 10C400 12 410 14 420 14C430 14 440 12 450 10C460 8 470 6 480 6C490 6 500 8 510 10C520 12 530 14 540 14C550 14 560 12 570 10C580 8 590 6 600 4C610 2 620 0 630 0C640 0 650 2 660 4C670 6 680 8 690 8C700 8 710 6 720 4C730 2 740 0 750 0C760 0 770 2 780 4C790 6 800 8 810 10C820 12 830 14 840 14C850 14 860 12 870 10C880 8 890 6 900 4C910 2 920 0 930 0C940 0 950 2 960 5V21H0V5Z"
        fill="#0B3D5E" stroke-linecap="round" stroke-linejoin="miter"></path>
</svg>